<?xml version="1.0" encoding="UTF-8" standalone="no"?>
<!DOCTYPE svg PUBLIC "-//W3C//DTD SVG 1.1//EN" "http://www.w3.org/Graphics/SVG/1.1/DTD/svg11.dtd">
<svg width="100%" height="100%" viewBox="0 0 1800 1800" version="1.1" xmlns="http://www.w3.org/2000/svg" xmlns:xlink="http://www.w3.org/1999/xlink" xml:space="preserve" xmlns:serif="http://www.serif.com/" style="fill-rule:evenodd;clip-rule:evenodd;stroke-linejoin:round;stroke-miterlimit:2;">
    <g transform="matrix(-0.0178795,-2.38289,4.50396,-0.0337944,-402.541,1726.59)">
        <g opacity="0.94">
            <g transform="matrix(129.847,0,0,-129.847,194.929,273.243)">
                <path d="M0,0.027L0,0.855C0,0.887 0.039,0.904 0.062,0.881L0.989,0C0.996,-0.007 1,-0.017 1,-0.027L1,-0.855C1,-0.887 0.961,-0.904 0.938,-0.881L0.011,0C0.004,0.007 0,0.017 0,0.027Z" style="fill:url(#_Linear1);fill-rule:nonzero;"/>
            </g>
        </g>
    </g>
    <g transform="matrix(-2.32159,-309.41,-584.823,4.38809,874.433,1015.44)">
        <path d="M0,0.867L0,0.039C0,0.029 0.004,0.019 0.011,0.012L0.937,-0.869C0.961,-0.892 1,-0.875 1,-0.842L1,-0.015C1,-0.005 0.996,0.005 0.989,0.012L0.062,0.893C0.055,0.901 0.046,0.904 0.037,0.904C0.018,0.904 0,0.889 0,0.867Z" style="fill:url(#_Linear2);fill-rule:nonzero;"/>
    </g>
    <g transform="matrix(-2.32159,-309.41,-584.823,4.38809,910.25,774.507)">
        <path d="M0,0.867L0,0.039C0,0.029 0.004,0.019 0.011,0.012L0.938,-0.869C0.961,-0.892 1,-0.875 1,-0.842L1,-0.015C1,-0.005 0.996,0.005 0.989,0.012L0.062,0.893C0.055,0.901 0.046,0.904 0.037,0.904C0.018,0.904 0,0.889 0,0.867Z" style="fill:url(#_Linear3);fill-rule:nonzero;"/>
    </g>
    <g transform="matrix(-0.534355,-71.2162,-134.608,1.01,1000.31,1013.33)">
        <path d="M1,-0.951C1,-0.91 1,0.068 1,0.068L0,1.034C0,1.034 1,-0.993 1,-0.951Z" style="fill:url(#_Linear4);fill-rule:nonzero;"/>
    </g>
    <g transform="matrix(-0.511185,-68.1283,-128.771,0.966205,1032,772.964)">
        <path d="M1,-0.982C1,-0.938 1,0.084 1,0.084L0,1.068C0,1.068 1,-1.025 1,-0.982Z" style="fill:url(#_Linear5);fill-rule:nonzero;"/>
    </g>
    <defs>
        <linearGradient id="_Linear1" x1="0" y1="0" x2="1" y2="0" gradientUnits="userSpaceOnUse" gradientTransform="matrix(1,0,0,-1,0,-6.28742e-06)"><stop offset="0" style="stop-color:rgb(156,200,239);stop-opacity:1"/><stop offset="0.11" style="stop-color:rgb(144,224,239);stop-opacity:1"/><stop offset="1" style="stop-color:rgb(0,180,216);stop-opacity:1"/></linearGradient>
        <linearGradient id="_Linear2" x1="0" y1="0" x2="1" y2="0" gradientUnits="userSpaceOnUse" gradientTransform="matrix(1,0,0,-1,0,0.0121404)"><stop offset="0" style="stop-color:rgb(0,152,216);stop-opacity:1"/><stop offset="0.11" style="stop-color:rgb(0,180,216);stop-opacity:1"/><stop offset="1" style="stop-color:rgb(0,119,182);stop-opacity:1"/></linearGradient>
        <linearGradient id="_Linear3" x1="0" y1="0" x2="1" y2="0" gradientUnits="userSpaceOnUse" gradientTransform="matrix(1,0,0,-1,0,0.0121456)"><stop offset="0" style="stop-color:rgb(0,98,182);stop-opacity:1"/><stop offset="0.11" style="stop-color:rgb(0,119,182);stop-opacity:1"/><stop offset="1" style="stop-color:rgb(3,4,94);stop-opacity:1"/></linearGradient>
        <linearGradient id="_Linear4" x1="0" y1="0" x2="1" y2="0" gradientUnits="userSpaceOnUse" gradientTransform="matrix(1,0,0,-1,0,0.0409194)"><stop offset="0" style="stop-color:rgb(22,180,216);stop-opacity:1"/><stop offset="0.11" style="stop-color:rgb(0,180,216);stop-opacity:1"/><stop offset="1" style="stop-color:rgb(0,119,182);stop-opacity:1"/></linearGradient>
        <linearGradient id="_Linear5" x1="0" y1="0" x2="1" y2="0" gradientUnits="userSpaceOnUse" gradientTransform="matrix(1,0,0,-1,0,0.042717)"><stop offset="0" style="stop-color:rgb(0,98,182);stop-opacity:1"/><stop offset="0.11" style="stop-color:rgb(0,119,182);stop-opacity:1"/><stop offset="1" style="stop-color:rgb(3,4,94);stop-opacity:1"/></linearGradient>
    </defs>
</svg>
